<svg xmlns="http://www.w3.org/2000/svg" width="44" height="44" fill="none"><g fill="#BBB" clip-path="url(#a)"><path d="M38.417 4.845h-8.03a.644.644 0 1 0 0 1.289h8.03a.644.644 0 1 0 0-1.289ZM38.417 8.435h-8.03a.644.644 0 1 0 0 1.29h8.03a.644.644 0 1 0 0-1.29Z"/><path d="M43.995 40.069a3.909 3.909 0 0 0-1.286-2.86l-6.076-5.488c.37-.873.58-1.816.613-2.792a7.9 7.9 0 0 0-.158-1.87h4.867c1.125 0 2.04-.916 2.04-2.04V8.41a.644.644 0 1 0-1.289 0v16.608c0 .414-.337.75-.75.75h-5.254a7.83 7.83 0 0 0-1.56-2.458 7.84 7.84 0 0 0-2.212-1.659v-1.157h5.487a.644.644 0 1 0 0-1.289h-5.486v-2.302h5.486a.644.644 0 1 0 0-1.288h-5.486v-2.302h5.486a.644.644 0 1 0 0-1.289H32.91a1.461 1.461 0 0 0-1.438-1.209h-5.828V2.04c0-.414.337-.75.75-.75h15.563c.413 0 .75.336.75.75v3.88a.644.644 0 1 0 1.289 0v-3.88C43.995.915 43.08 0 41.955 0H26.395c-1.125 0-2.04.915-2.04 2.04v8.776H1.465a1.46 1.46 0 0 0-1.459 1.46v27.092c0 .804.655 1.459 1.46 1.459H31.47a1.46 1.46 0 0 0 1.46-1.46v-2.073l1.682 2.14a.643.643 0 1 0 1.013-.796l-2.44-3.105a7.89 7.89 0 0 0 2.827-2.637l5.832 5.269c.55.495.855 1.175.86 1.915a2.582 2.582 0 0 1-.828 1.929 2.578 2.578 0 0 1-1.98.694 2.582 2.582 0 0 1-1.853-.989l-.867-1.103a.644.644 0 1 0-1.013.796l.867 1.104a3.909 3.909 0 0 0 2.767 1.477 3.908 3.908 0 0 0 2.959-1.037 3.907 3.907 0 0 0 1.238-2.882Zm-12.524-.53H1.464a.17.17 0 0 1-.17-.171V19.526h1.52a.644.644 0 1 0 0-1.288h-1.52v-5.963a.17.17 0 0 1 .17-.17h30.007a.17.17 0 0 1 .17.17v3.055H11.695a.645.645 0 0 0-.37.117l-3.982 2.79H5.306a.644.644 0 0 0 0 1.29h2.24c.131 0 .26-.041.369-.117l3.982-2.79h19.745v4.523a7.889 7.889 0 0 0-1.962-.316 7.793 7.793 0 0 0-5.617 2.105c-3.16 2.95-3.33 7.92-.38 11.08a7.819 7.819 0 0 0 5.732 2.484c.75 0 1.5-.107 2.227-.321v3.193a.17.17 0 0 1-.17.17Zm2.412-6.091a6.524 6.524 0 0 1-4.468 1.76 6.533 6.533 0 0 1-4.79-2.077 6.557 6.557 0 0 1 .317-9.257 6.507 6.507 0 0 1 4.694-1.759 6.506 6.506 0 0 1 4.563 2.076 6.507 6.507 0 0 1 1.76 4.694 6.507 6.507 0 0 1-2.076 4.563Z"/><path d="M25.96 24.965a5.064 5.064 0 0 0-.244 7.148 5.045 5.045 0 0 0 3.698 1.604 5.04 5.04 0 0 0 3.45-1.36 5.024 5.024 0 0 0 1.603-3.523 5.025 5.025 0 0 0-1.358-3.625 5.064 5.064 0 0 0-7.149-.244Zm7.22 3.825a3.744 3.744 0 0 1-1.195 2.626 3.773 3.773 0 0 1-5.327-.182 3.773 3.773 0 0 1 .182-5.328 3.755 3.755 0 0 1 2.571-1.012 3.76 3.76 0 0 1 2.756 1.195 3.744 3.744 0 0 1 1.012 2.701ZM40.365 41.033a.644.644 0 0 0 .47-1.084l-.506-.543a.644.644 0 0 0-.942.88l.507.543a.643.643 0 0 0 .47.204ZM5.991 15.367a.644.644 0 1 0 0-1.289H3.855a.644.644 0 0 0 0 1.289h2.136ZM7.217 33.272c.745 0 1.35-.606 1.35-1.35v-3.747c0-.744-.605-1.35-1.35-1.35h-.581v-1.857a.644.644 0 1 0-1.29 0v1.858h-.58c-.745 0-1.35.605-1.35 1.35v3.746c0 .744.605 1.35 1.35 1.35h.58v.446a.644.644 0 1 0 1.29 0v-.447h.581Zm-2.513-1.35v-3.747c0-.033.028-.06.061-.06h2.452c.034 0 .061.027.061.06v3.747c0 .033-.027.06-.06.06H4.764a.061.061 0 0 1-.06-.06ZM10.405 28.143h.582v.447a.644.644 0 1 0 1.289 0v-.447h.581c.745 0 1.35-.605 1.35-1.35v-3.746c0-.744-.605-1.35-1.35-1.35h-.581V19.84a.644.644 0 1 0-1.289 0v1.857h-.582c-.744 0-1.35.606-1.35 1.35v3.747c0 .744.606 1.35 1.35 1.35Zm-.06-5.096c0-.034.027-.061.06-.061h2.452c.034 0 .061.027.061.06v3.748c0 .033-.027.06-.06.06h-2.453a.061.061 0 0 1-.06-.06v-3.747ZM18.393 26.462h-.581v-1.857a.644.644 0 0 0-1.29 0v1.857h-.58c-.745 0-1.35.606-1.35 1.35v3.747c0 .744.605 1.35 1.35 1.35h.58v.446a.644.644 0 1 0 1.29 0v-.447h.581c.744 0 1.35-.605 1.35-1.35v-3.746c0-.744-.605-1.35-1.35-1.35Zm.061 5.097a.061.061 0 0 1-.06.06H15.94a.061.061 0 0 1-.06-.06v-3.747c0-.033.027-.06.06-.06h2.452a.06.06 0 0 1 .061.06v3.747ZM16.397 36.002h-9.08a.644.644 0 1 0 0 1.289h9.08a.644.644 0 0 0 0-1.289ZM17.057 19.526h9.08a.644.644 0 1 0 0-1.288h-9.08a.644.644 0 0 0 0 1.288Z"/></g><defs><clipPath id="a"><path fill="#fff" d="M0 0h44v44H0z"/></clipPath></defs></svg>