<svg xmlns="http://www.w3.org/2000/svg" width="336" height="36" class="highcharts-root" style="font-family:Arial;font-size:12px"><defs><clipPath id="a"><path fill="none" d="M0 0h331v28H0z"/></clipPath></defs><rect width="336" height="36" fill="none" class="highcharts-background" rx="0" ry="0"/><path fill="none" d="M5 3h331v28H5z" class="highcharts-plot-background"/><path fill="none" d="M5 3h331v28H5z" class="highcharts-plot-border" data-z-index="1"/><g class="highcharts-series-group" data-z-index="3"><g fill="none" stroke-linejoin="round" class="highcharts-series highcharts-series-0 highcharts-line-series" clip-path="url(#a)" data-z-index=".1" transform="translate(5 3)"><path stroke="#049C2E" stroke-linecap="round" stroke-width="2" d="m3.245 10.12 3.773 5.163 3.774-3.144h3.773l3.774-.701 3.773.736 3.773.085 3.774.345 3.773.121 3.773-1.668 3.774-1.954 3.773-.054 3.774.365 3.773-.15 3.773.122 3.774-.505 3.773.395 3.773-.115 3.774.245 3.773-.058 3.773.351 3.774-.533 3.773.9 3.774.07 3.773.55 3.773.157 3.774-.238 3.773 1.722 3.773-.135 3.774-.14 3.773-.15 3.774.66 3.773-.197 3.773-.081 3.774.087 3.773-.27 3.773-.236 3.774.226 3.773-.53 3.774-1.288 3.773-.106 3.773-.118 3.774.005 3.773-.385 3.773.054 3.774-.597 3.773.187 3.773.423 3.774.275 3.773-.444 3.774-.29 3.773-2.032 3.773.24 3.774-.294 3.773-.53 3.773-.02 3.774.385 3.773.166 3.774-.4 3.773-.71 3.773-.19 3.774-1.268 3.773.29 3.773-.828 3.774.02 3.773.253 3.774.335 3.773.347 3.773.03 3.774-1.014 3.773.047 3.773.369 3.774.192 3.773.09 3.773.004 3.774-.142 3.773-.198 3.774.232 3.773.618 3.773-.627h26.414" class="highcharts-graph" data-z-index="1"/><path stroke="rgba(192,192,192,0.0001)" stroke-width="22" d="M-6.755 10.12h10l3.773 5.163 3.774-3.144h3.773l3.774-.701 3.773.736 3.773.085 3.774.345 3.773.121 3.773-1.668 3.774-1.954 3.773-.054 3.774.365 3.773-.15 3.773.122 3.774-.505 3.773.395 3.773-.115 3.774.245 3.773-.058 3.773.351 3.774-.533 3.773.9 3.774.07 3.773.55 3.773.157 3.774-.238 3.773 1.722 3.773-.135 3.774-.14 3.773-.15 3.774.66 3.773-.197 3.773-.081 3.774.087 3.773-.27 3.773-.236 3.774.226 3.773-.53 3.774-1.288 3.773-.106 3.773-.118 3.774.005 3.773-.385 3.773.054 3.774-.597 3.773.187 3.773.423 3.774.275 3.773-.444 3.774-.29 3.773-2.032 3.773.24 3.774-.294 3.773-.53 3.773-.02 3.774.385 3.773.166 3.774-.4 3.773-.71 3.773-.19 3.774-1.268 3.773.29 3.773-.828 3.774.02 3.773.253 3.774.335 3.773.347 3.773.03 3.774-1.014 3.773.047 3.773.369 3.774.192 3.773.09 3.773.004 3.774-.142 3.773-.198 3.774.232 3.773.618 3.773-.627h36.414" class="highcharts-tracker-line" data-z-index="2"/></g></g></svg>