<svg xmlns="http://www.w3.org/2000/svg" width="44" height="44" fill="none"><g clip-path="url(#a)"><path fill="#BBB" fill-rule="evenodd" d="M19.198 35.712H2.966a2.278 2.278 0 0 1-2.278-2.274V16.55a2.281 2.281 0 0 1 2.278-2.273H4.22V9.973c0-5.153 4.217-9.37 9.37-9.37 5.152 0 9.365 4.217 9.365 9.37a.69.69 0 0 1-.69.69h-3.972a.69.69 0 0 1-.69-.69c0-2.204-1.813-4.017-4.014-4.017-2.2 0-4.013 1.813-4.013 4.017v4.304h14.636a2.278 2.278 0 0 1 2.274 2.274v2.503a12.509 12.509 0 0 1 4.279-.75c6.924 0 12.546 5.622 12.546 12.546 0 6.924-5.622 12.546-12.546 12.546-5.2 0-9.666-3.171-11.567-7.684ZM5.6 14.277h2.595V9.973c0-2.962 2.436-5.397 5.393-5.397 2.725 0 5.007 2.066 5.35 4.707h2.606c-.353-4.074-3.795-7.299-7.956-7.299-4.393 0-7.988 3.596-7.988 7.99v4.303Zm19.505 5.375V16.55c0-.49-.4-.893-.894-.893H2.967a.898.898 0 0 0-.898.893v16.888c0 .494.404.894.898.894h15.742a12.535 12.535 0 0 1-.49-3.482c0-4.889 2.802-9.128 6.887-11.198Zm5.659.033c-6.162 0-11.165 5.003-11.165 11.165 0 6.163 5.003 11.166 11.165 11.166 6.163 0 11.166-5.003 11.166-11.166 0-6.162-5.003-11.165-11.166-11.165Zm2.65 10.936a7.822 7.822 0 0 1 5.12 6.514.69.69 0 0 1-.686.764H23.681a.69.69 0 0 1-.687-.764 7.827 7.827 0 0 1 5.122-6.514 4.29 4.29 0 0 1-1.642-3.374 4.3 4.3 0 0 1 4.291-4.293 4.3 4.3 0 0 1 4.293 4.293 4.29 4.29 0 0 1-1.642 3.374Zm-2.65.92a6.438 6.438 0 0 0-6.27 4.977h12.54a6.436 6.436 0 0 0-6.27-4.978Zm0-1.381a2.918 2.918 0 0 0 2.913-2.913 2.918 2.918 0 0 0-2.913-2.913 2.917 2.917 0 0 0-2.91 2.913 2.918 2.918 0 0 0 2.91 2.913ZM13.589 18.278a3.78 3.78 0 0 1 3.777 3.78c0 1.22-.572 2.301-1.466 2.992v4.35a2.318 2.318 0 0 1-2.31 2.31 2.314 2.314 0 0 1-2.311-2.31v-4.35a3.77 3.77 0 0 1-1.47-2.992 3.783 3.783 0 0 1 3.78-3.78Zm0 1.38a2.402 2.402 0 0 0-2.4 2.4c0 .865.457 1.622 1.142 2.044a.69.69 0 0 1 .328.587V29.4c0 .513.418.93.93.93.51 0 .93-.417.93-.93v-4.71a.69.69 0 0 1 .329-.588 2.394 2.394 0 0 0 1.138-2.044c0-1.323-1.073-2.4-2.397-2.4Z" clip-rule="evenodd"/></g><defs><clipPath id="a"><path fill="#fff" d="M0 0h44v44H0z"/></clipPath></defs></svg>