<svg xmlns="http://www.w3.org/2000/svg" width="45" height="44" fill="none"><mask id="a" width="45" height="45" x="0" y="0" maskUnits="userSpaceOnUse" style="mask-type:luminance"><path fill="#fff" d="M.667.019h44.002V44.02H.666V.02Z"/></mask><g stroke="#BBB" stroke-miterlimit="10" stroke-width="2.3" mask="url(#a)"><path stroke-linecap="round" d="M2.82 41.867a2.951 2.951 0 0 1 0-4.174l7.551-7.551a2.952 2.952 0 0 1 4.175 4.174l-7.552 7.551a2.951 2.951 0 0 1-4.174 0Z"/><path d="m14.545 30.142 4.757-4.757"/><path stroke-linecap="round" d="M39.248 25.386c5.508-5.509 5.508-14.439 0-19.947-5.508-5.508-14.438-5.508-19.946 0-5.508 5.508-5.508 14.438 0 19.947 5.508 5.508 14.438 5.508 19.946 0ZM22.744 20.913v-4.126M27.04 20.913V12.49M31.338 20.913v-6.704M35.635 20.913V9.912"/></g></svg>