<svg xmlns="http://www.w3.org/2000/svg" width="45" height="44" fill="none"><g fill="#BBB" clip-path="url(#a)"><path d="M17.367 9.533a.733.733 0 0 0-.734.734v3.666h-2.2a.733.733 0 0 0-.733.734v19.066c0 .405.328.734.733.734h2.2V37.4a.733.733 0 1 0 1.467 0v-2.933h2.2a.733.733 0 0 0 .733-.734V14.667a.733.733 0 0 0-.733-.734h-2.2v-3.666a.733.733 0 0 0-.733-.734Zm2.2 5.867V33h-4.4V15.4h4.4ZM27.633 6.6a.733.733 0 0 0-.733.733V11h-2.2a.733.733 0 0 0-.733.733V30.8c0 .405.328.733.733.733h2.2v2.934a.733.733 0 1 0 1.467 0v-2.934h2.2a.733.733 0 0 0 .733-.733V11.733a.733.733 0 0 0-.733-.733h-2.2V7.333a.733.733 0 0 0-.734-.733Zm2.2 5.867v17.6h-4.4v-17.6h4.4ZM37.9 15.4a.733.733 0 0 0-.733.733V19.8h-2.2a.733.733 0 0 0-.734.733V39.6c0 .405.329.733.734.733h2.2v2.934a.733.733 0 0 0 1.466 0v-2.934h2.2a.733.733 0 0 0 .734-.733V20.533a.733.733 0 0 0-.734-.733h-2.2v-3.667a.733.733 0 0 0-.733-.733Zm2.2 5.867v17.6h-4.4v-17.6h4.4ZM7.1 0a.733.733 0 0 0-.733.733V4.4h-2.2a.733.733 0 0 0-.734.733V24.2c0 .405.329.733.734.733h2.2v2.934a.733.733 0 0 0 1.466 0v-2.934h2.2a.733.733 0 0 0 .734-.733V5.133a.733.733 0 0 0-.734-.733h-2.2V.733A.733.733 0 0 0 7.1 0Zm2.2 5.867v17.6H4.9v-17.6h4.4Z"/></g><defs><clipPath id="a"><path fill="#fff" d="M.5 0h44v44H.5z"/></clipPath></defs></svg>