<svg xmlns="http://www.w3.org/2000/svg" width="45" height="44" fill="none"><g clip-path="url(#a)"><path fill="#BBB" d="M42.418 24.072a19.79 19.79 0 0 0-5.834-14.078 19.774 19.774 0 0 0-10.6-5.532v-.977c0-.932-.363-1.807-1.02-2.463A3.459 3.459 0 0 0 22.498 0a3.49 3.49 0 0 0-3.485 3.485v.98a19.747 19.747 0 0 0-6.75 2.522.861.861 0 0 0 .886 1.476 18.088 18.088 0 0 1 9.349-2.581c4.86 0 9.43 1.892 12.867 5.33a18.079 18.079 0 0 1 5.33 12.881c.076 4.602-1.893 9.257-5.402 12.772-3.502 3.508-8.157 5.482-12.782 5.411h-.013c-1.786 0-3.537-.257-5.225-.762a8.597 8.597 0 0 0 1.245-1.443c1.296.323 2.632.487 3.98.487 9.086 0 16.479-7.392 16.479-16.479S31.585 7.6 22.499 7.6C13.413 7.6 6.02 14.992 6.02 24.08c0 1.43.184 2.844.547 4.215-.52.369-.998.793-1.424 1.266a18.128 18.128 0 0 1-.84-5.48c0-3.85 1.185-7.528 3.43-10.638a.861.861 0 0 0-1.397-1.007A19.778 19.778 0 0 0 2.58 24.079c0 2.494.455 4.92 1.35 7.22a8.475 8.475 0 0 0-.978 3.962c0 4.703 3.826 8.529 8.528 8.529a8.477 8.477 0 0 0 4.073-1.037 19.842 19.842 0 0 0 6.94 1.245c.085.002.168.002.253.002 4.998 0 10.003-2.148 13.766-5.918 3.835-3.842 5.988-8.948 5.906-14.01ZM20.736 4.237v-.752a1.765 1.765 0 0 1 3.01-1.246c.333.333.516.775.516 1.246v.752a20.307 20.307 0 0 0-3.526 0ZM7.774 25.04H8.95a.861.861 0 0 0 0-1.723H7.762a14.697 14.697 0 0 1 3.693-9.013l.868.868a.859.859 0 0 0 1.218 0 .861.861 0 0 0 0-1.218l-.871-.871a14.697 14.697 0 0 1 9.016-3.738v1.236a.861.861 0 1 0 1.723 0V9.35c3.439.21 6.564 1.604 8.97 3.778l-.825.825a.861.861 0 1 0 1.218 1.218l.817-.817a14.697 14.697 0 0 1 3.647 8.962h-1.09a.861.861 0 0 0 0 1.723h1.078a14.697 14.697 0 0 1-3.728 8.869l-.724-.724a.861.861 0 1 0-1.218 1.218l.721.72a14.696 14.696 0 0 1-8.866 3.685v-1.032a.861.861 0 0 0-1.723 0v1.036a14.705 14.705 0 0 1-2.317-.31c.412-1 .64-2.093.64-3.24 0-4.702-3.826-8.528-8.529-8.528a8.48 8.48 0 0 0-3.355.688 14.727 14.727 0 0 1-.351-2.382Zm-3.1 10.222a6.814 6.814 0 0 1 6.806-6.806 6.814 6.814 0 0 1 6.807 6.806 6.814 6.814 0 0 1-6.807 6.806 6.814 6.814 0 0 1-6.806-6.806Z"/><path fill="#BBB" d="M22.547 26.66c.43 0 .835-.106 1.192-.293l2.723 2.688a.858.858 0 0 0 1.218-.008.861.861 0 0 0-.008-1.218l-2.758-2.722a2.585 2.585 0 0 0-1.504-3.46v-7.085a.861.861 0 1 0-1.722 0v7.083a2.585 2.585 0 0 0-1.722 2.434 2.584 2.584 0 0 0 2.581 2.581Zm-.859-2.581a.86.86 0 0 1 1.718 0 .86.86 0 0 1-1.718 0ZM14.32 36.045l-1.975 1.462v-6.15a.861.861 0 1 0-1.723 0v6.048l-1.836-1.36A.861.861 0 1 0 7.76 37.43l2.767 2.05a1.719 1.719 0 0 0 2.05 0l2.766-2.05a.861.861 0 0 0-1.025-1.384Z"/><path fill="#5D5D5D" d="M9.601 10.92a.861.861 0 1 0 0-1.722.861.861 0 0 0 0 1.722Z"/></g><defs><clipPath id="a"><path fill="#fff" d="M.5 0h44v44H.5z"/></clipPath></defs></svg>